<svg width="188" height="24" viewBox="0 0 188 24" fill="none" xmlns="http://www.w3.org/2000/svg">
<path d="M116.917 22.9793L114.84 16.0946C114.616 15.2568 114.227 14.472 113.697 13.7857C113.227 13.2237 112.624 12.7882 111.943 12.5189C112.448 12.3374 112.926 12.0882 113.364 11.7781C113.903 11.3949 114.371 10.9192 114.744 10.373C115.107 9.83736 115.379 9.2459 115.55 8.62214C115.728 7.98291 115.817 7.32239 115.816 6.65895C115.821 5.81713 115.664 4.98221 115.354 4.19941C115.046 3.44242 114.58 2.75942 113.988 2.19548C113.351 1.59997 112.597 1.14189 111.775 0.849643C110.819 0.513511 109.812 0.348822 108.799 0.363167H101.01C100.357 0.363167 99.9424 0.503924 99.7362 0.791612C99.5359 1.10471 99.438 1.47234 99.4559 1.84358V23.0707C99.4559 23.3806 99.656 23.5708 99.977 23.5708H101.088C101.496 23.5708 101.644 23.3152 101.644 23.0707V13.2684H107.726C108.286 13.2669 108.844 13.3149 109.395 13.4116C109.891 13.4963 110.366 13.6735 110.796 13.9339C111.228 14.2093 111.607 14.5611 111.914 14.9723C112.282 15.4846 112.553 16.06 112.714 16.67C113.023 17.7108 113.351 18.8184 113.677 19.9062C113.83 20.4111 113.977 20.9137 114.128 21.415L114.65 23.1683C114.672 23.2554 114.716 23.3351 114.779 23.3988C114.842 23.4626 114.921 23.5079 115.008 23.53C115.092 23.5521 115.178 23.5645 115.265 23.5671H116.439C116.52 23.5758 116.601 23.5646 116.676 23.5344C116.752 23.5043 116.818 23.4561 116.87 23.3942C116.913 23.3343 116.94 23.2643 116.948 23.1909C116.956 23.1176 116.945 23.0434 116.916 22.9756M113.6 6.80094C113.6 8.2295 113.154 9.36297 112.27 10.1692C111.386 10.9755 110.071 11.3879 108.379 11.3879H101.672V2.34735H108.556H108.669C110.151 2.34735 111.345 2.75233 112.233 3.55119C113.143 4.36486 113.6 5.45881 113.6 6.80341" fill="#00224C"/>
<path d="M88.4868 0.462957C88.3818 0.387639 88.1979 0.351833 87.9237 0.351833H86.0322C85.8454 0.338259 85.6584 0.375822 85.4914 0.460487C85.3679 0.538274 85.3049 0.707429 85.3049 0.972892V22.9433C85.3049 23.2063 85.3667 23.3779 85.4914 23.4557C85.6595 23.5368 85.846 23.5726 86.0322 23.5594H87.9237C88.1966 23.5594 88.3806 23.5261 88.4868 23.4557C88.593 23.3853 88.6485 23.2088 88.6485 22.9433V0.971657C88.6485 0.707429 88.5991 0.538274 88.4868 0.461722" fill="#00224C"/>
<path d="M76.7124 22.5311L69.0572 1.95961C68.8535 1.36695 68.6127 0.958265 68.3164 0.724905C68.02 0.491545 67.4916 0.354492 66.7298 0.354492H65.5877C64.932 0.379186 64.4641 0.496484 64.1641 0.713793C63.864 0.931102 63.6109 1.33115 63.3837 1.95468L55.7507 22.5262C55.7026 22.635 55.6786 22.7529 55.6805 22.8719C55.6824 22.9908 55.7102 23.108 55.7619 23.2151C55.8409 23.3831 56.0347 23.5856 56.4891 23.5856H59.1314C59.3836 23.6026 59.6345 23.5371 59.8463 23.3991C60.0178 23.2683 60.1468 23.0896 60.2167 22.8855L61.7737 18.4776H70.6981L72.2489 22.8855C72.3724 23.2337 72.5403 23.4325 72.765 23.5028C72.9831 23.5614 73.2085 23.5884 73.4343 23.5831H76.0099C76.4371 23.5831 76.6186 23.3855 76.7025 23.2201C76.7543 23.1133 76.782 22.9965 76.7837 22.8779C76.7854 22.7593 76.7611 22.6418 76.7124 22.5336M69.4758 14.9895H62.8812L66.1347 5.04886L69.4758 14.9895Z" fill="#00224C"/>
<path d="M47.6872 0.562097C47.4995 0.425045 47.239 0.36084 46.8587 0.36084H44.3263C43.9435 0.36084 43.6818 0.425045 43.4978 0.562097C43.2854 0.72014 43.1817 0.991776 43.1817 1.39553V16.3244L40.8148 12.5499L34.0152 1.93139C33.6275 1.35972 33.288 0.964613 32.9806 0.742365C32.6385 0.48678 32.1484 0.364544 31.4656 0.364544H30.2728C29.4085 0.364544 28.8159 0.555924 28.4541 0.946092C28.0923 1.33626 27.9368 1.89682 27.9368 2.68333V22.5301C27.9368 22.9387 28.0602 23.2252 28.3072 23.3808C28.5412 23.513 28.808 23.5759 29.0764 23.5623H31.5977C32.0162 23.5623 32.2743 23.5079 32.4459 23.3832C32.7163 23.1857 32.7497 22.798 32.7497 22.5301V7.63575L35.0833 11.3732L41.9149 22.0325C42.1014 22.2979 42.2742 22.5263 42.4261 22.7091C42.5793 22.9047 42.7622 23.075 42.9681 23.2141C43.1725 23.3523 43.4026 23.4481 43.6447 23.4956C43.9168 23.5452 44.193 23.5683 44.4695 23.5647H45.6586C46.555 23.5647 47.1624 23.3598 47.5106 22.9375C47.8341 22.5412 48.0045 21.9831 48.0045 21.2781V1.39923C48.0045 0.999185 47.9057 0.725079 47.6909 0.565802" fill="#00224C"/>
<path d="M17.7576 23.5684H6.8477C5.43519 23.5684 4.28897 23.3811 3.40903 23.0066C2.5291 22.6321 1.83437 22.1382 1.32484 21.5249C0.826978 20.9342 0.470933 20.2373 0.283983 19.4877C0.128405 18.8921 0.0332634 18.2824 0 17.6677L0 7.0492C0 5.85153 0.114828 5.07366 0.354362 4.31185C0.582627 3.56041 0.973861 2.86858 1.50017 2.28569C2.0836 1.66287 2.80151 1.18145 3.59918 0.878121C4.47459 0.520055 5.52903 0.344727 6.77979 0.344727H17.1921C17.4748 0.344727 17.6563 0.381768 17.7391 0.459555C17.8218 0.537341 17.8625 0.765763 17.8625 1.13618V4.88846C17.8625 5.17738 17.8156 5.37 17.7193 5.47001C17.623 5.57002 17.4526 5.62064 17.1921 5.62064H8.78866C8.40243 5.60696 8.01728 5.66947 7.6552 5.80461C7.41119 5.90173 7.19369 6.05533 7.02056 6.25281C6.88248 6.42786 6.78544 6.63165 6.73658 6.84918C6.69165 7.06813 6.66972 7.29118 6.67114 7.51469V9.30501H16.1278C16.4093 9.30501 16.5908 9.35193 16.676 9.4396C16.7612 9.52726 16.7995 9.76186 16.7995 10.136V13.5932C16.7995 14.1027 16.5764 14.3579 16.1302 14.3587H6.67484V16.4453C6.66 16.7835 6.71203 17.1213 6.82794 17.4393C6.91748 17.6623 7.0719 17.8533 7.2712 17.9875C7.47391 18.1151 7.70337 18.1941 7.94165 18.2184C8.2226 18.2536 8.50553 18.2705 8.78866 18.269H17.7576C18.0379 18.269 18.2218 18.306 18.3021 18.3925C18.3824 18.4789 18.4256 18.6975 18.4256 19.0728V22.8226C18.4256 23.3301 18.2009 23.5832 17.7551 23.5832" fill="#00224C"/>
<path d="M145.149 6.41185C144.796 5.19233 144.198 4.05783 143.391 3.07813C142.553 2.09366 141.495 1.31971 140.304 0.818613C139.062 0.274106 137.527 0 135.735 0C132.634 0 130.157 1.01987 128.364 3.02874C126.571 5.03762 125.679 8.05278 125.679 12.0211C125.679 14.0732 125.926 15.866 126.4 17.3588C126.874 18.8515 127.58 20.1233 128.465 21.1049C129.357 22.088 130.474 22.84 131.72 23.2965C133.074 23.7791 134.502 24.017 135.939 23.9991C137.043 24.0031 138.145 23.9085 139.232 23.7163C140.27 23.5333 141.272 23.1808 142.195 22.673L142.329 22.5495C142.395 22.4939 142.519 22.3273 142.329 22.0556L142.047 21.5617C142.007 21.4971 141.952 21.4433 141.886 21.4051C141.821 21.367 141.747 21.3457 141.671 21.3432L141.588 21.3494C141.507 21.3686 141.428 21.3967 141.353 21.4333C140.553 21.8049 139.715 22.0877 138.853 22.2766C137.911 22.4746 136.951 22.5722 135.989 22.568C134.8 22.5822 133.618 22.3904 132.494 22.0013C131.454 21.6344 130.524 21.009 129.792 20.1838C129.027 19.3467 128.425 18.2367 127.995 16.8908C127.583 15.5969 127.365 13.9967 127.347 12.1446H144.034C144.618 12.1446 145.043 12.0211 145.319 11.7742C145.596 11.5272 145.749 11.0729 145.749 10.416C145.724 9.05603 145.521 7.7052 145.144 6.39827M135.695 1.42485C137.32 1.42485 138.691 1.68661 139.778 2.19902C140.806 2.6743 141.703 3.39156 142.393 4.28938C143.064 5.19725 143.543 6.23245 143.801 7.33171C144.068 8.44579 144.21 9.5864 144.223 10.7321H127.369C127.578 7.79349 128.369 5.48828 129.73 3.89057C131.109 2.25581 133.123 1.42115 135.695 1.42115" fill="#00224C"/>
<path d="M175.426 23.5697H162.611C162.014 23.5697 161.441 23.3324 161.019 22.91C160.596 22.4877 160.359 21.9148 160.359 21.3175C160.359 20.7202 160.596 20.1474 161.019 19.7251C161.441 19.3027 162.014 19.0654 162.611 19.0654H175.43C176.027 19.0654 176.6 19.3027 177.022 19.7251C177.445 20.1474 177.682 20.7202 177.682 21.3175C177.682 21.9148 177.445 22.4877 177.022 22.91C176.6 23.3324 176.027 23.5697 175.43 23.5697" fill="#009FDA"/>
<path d="M185.16 14.2096H168.827C168.238 14.1958 167.679 13.9524 167.268 13.5314C166.856 13.1105 166.626 12.5453 166.626 11.9568C166.626 11.3683 166.856 10.8032 167.268 10.3822C167.679 9.96126 168.238 9.71788 168.827 9.7041H185.16C185.748 9.71788 186.307 9.96126 186.719 10.3822C187.13 10.8032 187.36 11.3683 187.36 11.9568C187.36 12.5453 187.13 13.1105 186.719 13.5314C186.307 13.9524 185.748 14.1958 185.16 14.2096Z" fill="#009FDA"/>
<path d="M175.426 4.85116H162.611C162.014 4.85116 161.441 4.61382 161.018 4.19135C160.596 3.76888 160.359 3.19589 160.359 2.59843C160.359 2.00097 160.596 1.42798 161.018 1.00551C161.441 0.583043 162.014 0.345703 162.611 0.345703H175.43C176.028 0.345703 176.601 0.583043 177.023 1.00551C177.446 1.42798 177.683 2.00097 177.683 2.59843C177.683 3.19589 177.446 3.76888 177.023 4.19135C176.601 4.61382 176.028 4.85116 175.43 4.85116" fill="#009FDA"/>
</svg>
